<?xml version="1.0" encoding="utf-8"?>
<!-- Generator: Adobe Illustrator 19.2.0, SVG Export Plug-In . SVG Version: 6.00 Build 0)  -->
<svg version="1.1" id="Layer_1" xmlns="http://www.w3.org/2000/svg" xmlns:xlink="http://www.w3.org/1999/xlink" x="0px" y="0px"
	 viewBox="0 0 529.5 399" style="enable-background:new 0 0 529.5 399;" xml:space="preserve">
<style type="text/css">
	.st0{opacity:0.2;stroke:#000000;stroke-miterlimit:10;enable-background:new    ;}
	.st1{opacity:0.2;enable-background:new    ;}
</style>
<rect x="227.7" y="212.1" class="st0" width="51.7" height="46.7"/>
<rect x="169.4" y="215.1" class="st0" width="44.3" height="92"/>
<rect x="58.4" y="225.7" class="st0" width="101.3" height="132"/>
<rect x="174.1" y="317.7" class="st0" width="37" height="41.3"/>
<rect x="224.4" y="270.7" class="st0" width="45.3" height="78"/>
<rect x="52.1" y="165.7" class="st0" width="89.7" height="48.3"/>
<rect x="151.7" y="130.1" class="st0" width="128" height="68"/>
<rect x="57.7" y="120.4" class="st0" width="44.7" height="37.7"/>
<rect x="107.4" y="120.7" class="st0" width="36" height="38.3"/>
<rect x="286.4" y="95.4" class="st0" width="59.7" height="84.7"/>
<rect x="287.1" y="193.1" class="st0" width="58" height="71.3"/>
<rect x="283.1" y="274.7" class="st0" width="34.3" height="31.3"/>
<rect x="327.7" y="274.4" class="st0" width="36.7" height="90.7"/>
<rect x="282.7" y="316.4" class="st0" width="35" height="37"/>
<rect x="360.1" y="191.1" class="st0" width="86" height="39"/>
<rect x="360.7" y="237.4" class="st0" width="33.3" height="32"/>
<rect x="407.4" y="238.1" class="st0" width="42" height="85.7"/>
<rect x="371.7" y="279.4" class="st0" width="29" height="62.3"/>
<rect x="353.4" y="127.7" class="st0" width="59.7" height="54.7"/>
<rect x="423.1" y="123.7" class="st0" width="53.3" height="57.7"/>
<rect x="150.4" y="84.7" class="st1" width="45.3" height="39.7"/>
<rect x="201.7" y="57.4" class="st1" width="77" height="67"/>
<rect x="58.7" y="89.1" class="st1" width="84.3" height="26.3"/>
<rect x="353.1" y="86.1" class="st1" width="59" height="33.7"/>
<rect x="422.7" y="68.4" class="st1" width="54" height="46.7"/>
<rect x="285.7" y="50.4" class="st1" width="31" height="39"/>
<rect x="321.7" y="50.1" class="st1" width="26" height="40.7"/>
<rect x="142.1" y="35.7" class="st1" width="53.7" height="45"/>
<rect x="58.4" y="38.1" class="st1" width="44.3" height="46.3"/>
<rect x="108.7" y="36.7" class="st1" width="27.7" height="48"/>
<rect x="353.7" y="37.4" class="st1" width="34.7" height="44.3"/>
<rect x="393.7" y="37.1" class="st1" width="24.7" height="45.3"/>
</svg>
